<svg width="18" height="28" viewBox="0 0 18 28" fill="none" xmlns="http://www.w3.org/2000/svg">
<g clip-path="url(#clip0_20_15)">
<path d="M0 6C0 2.68629 2.68629 0 6 0H12C15.3137 0 18 2.68629 18 6V19C18 23.9706 13.9706 28 9 28C4.02944 28 0 23.9706 0 19V6Z" fill="url(#paint0_linear_20_15)"/>
<g filter="url(#filter0_d_20_15)">
<path d="M9.5 4.58535V0H8.5V4.58535C7.9174 4.79127 7.5 5.34689 7.5 6V9C7.5 9.65311 7.9174 10.2087 8.5 10.4146V12C8.5 12.2761 8.72386 12.5 9 12.5C9.27614 12.5 9.5 12.2761 9.5 12V10.4146C10.0826 10.2087 10.5 9.65311 10.5 9V6C10.5 5.34689 10.0826 4.79127 9.5 4.58535Z" fill="url(#paint1_linear_20_15)"/>
</g>
</g>
<defs>
<filter id="filter0_d_20_15" x="5.5" y="-2" width="7" height="16.5" filterUnits="userSpaceOnUse" color-interpolation-filters="sRGB">
<feFlood flood-opacity="0" result="BackgroundImageFix"/>
<feColorMatrix in="SourceAlpha" type="matrix" values="0 0 0 0 0 0 0 0 0 0 0 0 0 0 0 0 0 0 127 0" result="hardAlpha"/>
<feOffset/>
<feGaussianBlur stdDeviation="1"/>
<feComposite in2="hardAlpha" operator="out"/>
<feColorMatrix type="matrix" values="0 0 0 0 0 0 0 0 0 0 0 0 0 0 0 0 0 0 0.25 0"/>
<feBlend mode="normal" in2="BackgroundImageFix" result="effect1_dropShadow_20_15"/>
<feBlend mode="normal" in="SourceGraphic" in2="effect1_dropShadow_20_15" result="shape"/>
</filter>
<linearGradient id="paint0_linear_20_15" x1="13.518" y1="26.18" x2="-3.10523" y2="7.65973" gradientUnits="userSpaceOnUse">
<stop stop-color="#1493DF"/>
<stop offset="1" stop-color="#50E6FF"/>
</linearGradient>
<linearGradient id="paint1_linear_20_15" x1="9.753" y1="11.6875" x2="4.45932" y2="9.48566" gradientUnits="userSpaceOnUse">
<stop stop-color="#0C59A4"/>
<stop offset="1" stop-color="#0078D4"/>
</linearGradient>
<clipPath id="clip0_20_15">
<rect width="18" height="28" fill="white"/>
</clipPath>
</defs>
</svg>
