<svg xmlns="http://www.w3.org/2000/svg" width="16" height="16">
  <defs>
    <linearGradient id="a" gradientTransform="rotate(45)">
      <stop offset="10%" stop-color="#e67eea"/>
      <stop offset="100%" stop-color="#794dc5"/>
    </linearGradient>
    <linearGradient id="c" gradientTransform="rotate(45)">
      <stop offset="0%" stop-color="#fff"/>
      <stop offset="100%" stop-color="#decbff"/>
    </linearGradient>
    <radialGradient id="b" cx="0%" cy="0%" r="100%">
      <stop offset="0%" stop-color="#3bd5ff"/>
      <stop offset="100%" stop-color="#2052cb"/>
    </radialGradient>
  </defs>
  <path fill="url(#a)" d="M6 0h4a3 3 0 0 1 3 3v8a5 5 0 0 1-5 5 5 5 0 0 1-5-5V3a3 3 0 0 1 3-3"/>
  <circle cx="11.5" cy="11.5" r="4.5" fill="url(#b)"/>
  <line x1="8" x2="8" y1="3" y2="5" stroke="#fbedfc" stroke-linecap="round" stroke-width="1.5"/>
  <path fill="url(#c)" d="M13.5 8.5a.5.5 0 0 0-.5.5v.1a3 3 0 0 0-1.5-.3 3 3 0 0 0-2.2.7.5.5 0 0 0 .7.8 2 2 0 0 1 2.5-.3H12a.5.5 0 0 0 0 1h1.5a.5.5 0 0 0 .5-.5V9a.5.5 0 0 0-.5-.5m-.9 5.5a3 3 0 0 1-2.6-.2v.2a.5.5 0 0 1-1 0v-1.5a.5.5 0 0 1 .5-.5H11a.5.5 0 0 1 0 1h-.5a2 2 0 0 0 2.4-.3.5.5 0 0 1 .7.7 3 3 0 0 1-1 .6"/>
</svg>
