<svg xmlns="http://www.w3.org/2000/svg" width="16" height="16">
  <defs>
    <linearGradient id="a" gradientTransform="rotate(45)">
      <stop offset="10%" stop-color="#e67eea"/>
      <stop offset="100%" stop-color="#794dc5"/>
    </linearGradient>
    <linearGradient id="c" gradientTransform="rotate(45)">
      <stop offset="0%" stop-color="#fff"/>
      <stop offset="100%" stop-color="#decbff"/>
    </linearGradient>
    <radialGradient id="b" cx="0%" cy="0%" r="100%">
      <stop offset="0%" stop-color="#3bd5ff"/>
      <stop offset="100%" stop-color="#2052cb"/>
    </radialGradient>
  </defs>
  <path fill="url(#a)" d="M7 0a3 3 0 013 3v8a5 5 0 01-5 5 5 5 0 01-5-5V3a3 3 0 013-3z"/>
  <circle cx="11.5" cy="11.5" r="4.5" fill="url(#b)"/>
  <line x1="8" x2="8" y1="3" y2="5" stroke="#fbedfc" stroke-linecap="round" stroke-width="1.5"/>
  <path fill="url(#c)" d="M14 9a.5.5 0 0 0-1 0v.152a3 3 0 0 0-3.621.477.5.5 0 0 0 .707.707A2 2 0 0 1 12.469 10H12a.5.5 0 0 0 0 1h1.5a.5.5 0 0 0 .5-.5zm-4.5 3a.5.5 0 0 0-.5.5V14a.5.5 0 0 0 1 0v-.152a3 3 0 0 0 3.621-.477.5.5 0 0 0-.707-.707 2 2 0 0 1-2.383.336H11a.5.5 0 0 0 0-1z"/>
</svg>
