<svg xmlns="http://www.w3.org/2000/svg" width="16" height="16">
  <path fill="url(#a)" d="M10 0a3 3 0 0 1 3 3v8a5 5 0 1 1-10 0V3a3 3 0 0 1 3-3h4Z"/>
  <circle cx="11.5" cy="11.5" r="4.5" fill="url(#b)"/>
  <line x1="8" x2="8" y1="3" y2="5" stroke="#f9f5ff" stroke-linecap="round" stroke-width="1.5"/>
  <path fill="url(#a)" d="M14 9a.5.5 0 0 0-1 0v.2a3 3 0 0 0-3.6.5.5.5 0 1 0 .7.7 2 2 0 0 1 2.4-.4H12a.5.5 0 0 0 0 1h1.5a.5.5 0 0 0 .5-.5Zm-4.5 3a.5.5 0 0 0-.5.5V14a.5.5 0 0 0 1 0v-.2a3 3 0 0 0 3.6-.5.5.5 0 0 0-.7-.7 2 2 0 0 1-2.5.4h.6a.5.5 0 0 0 0-1Z"/>
  <defs>
    <linearGradient id="a" x1=".1" x2=".9" y1=".1" y2=".9">
      <stop stop-color="#0fafff"/>
      <stop offset="1" stop-color="#794dc5"/>
    </linearGradient>
    <linearGradient id="b" x1="0" x2="1" y1="0" y2="1">
      <stop stop-color="#fff"/>
      <stop offset="1" stop-color="#decbff"/>
    </linearGradient>
  </defs>
</svg>